<svg width="153" height="29" viewBox="0 0 153 29" fill="none" xmlns="http://www.w3.org/2000/svg">
<path d="M22.2526 16.4484C23.7976 16.4483 24.987 14.964 24.987 13.2306V13.0832C24.987 11.3498 23.7976 9.8665 22.2526 9.86636C20.7075 9.86636 19.5182 11.3497 19.5182 13.0832V13.3918H21.3102V13.0832C21.3102 12.3976 21.7702 11.9132 22.2526 11.9132C22.735 11.9134 23.195 12.3977 23.195 13.0832V13.2306C23.195 13.9161 22.735 14.4004 22.2526 14.4005H5.76823C5.28593 14.4003 4.82585 13.916 4.82585 13.2306V13.0832C4.82585 12.3978 5.28593 11.9135 5.76823 11.9132C6.25067 11.9132 6.71062 12.3976 6.71062 13.0832V13.3918H8.50261V13.0832C8.50261 11.3497 7.3133 9.86636 5.76823 9.86636C4.22334 9.8666 3.03386 11.3499 3.03386 13.0832V13.2306C3.03386 14.9639 4.22334 16.4482 5.76823 16.4484H22.2526Z" fill="#FFFAC5" stroke="#FFFAC5" stroke-width="0.47"/>
<path d="M18.8294 13.2935V11.2457H9.10483V13.2935H18.8294Z" fill="#FFFAC5" stroke="#FFFAC5" stroke-width="0.47"/>
<path d="M22.322 19.4055V17.3577H5.60231V19.4055H22.322Z" fill="#FFFAC5" stroke="#FFFAC5" stroke-width="0.47"/>
<rect x="0.934025" y="1.42365" width="26.1527" height="26.1527" rx="13.0764" stroke="#FFFAC5" stroke-width="1.86805"/>
<rect x="12.5155" y="2.12417" width="3.57" height="10.5078" fill="#FFFAC5"/>
<path d="M36.1629 5.21254L41.5242 19.5678L46.8604 5.21254H49.8417L42.852 23H40.1964L33.1816 5.21254H36.1629ZM54.4544 5.21254H57.11L64.0245 23H61.0683L59.1893 18.1648H52.3249L50.471 23H47.4897L54.4544 5.21254ZM58.6382 16.0854L55.7822 8.29403L52.8259 16.0854H58.6382ZM64.9716 23V5.21254H67.7775V20.5198H77.3226V23H64.9716ZM78.3494 23V5.21254H81.1553V23H78.3494ZM83.9227 23V5.21254H90.236C92.1567 5.21254 93.7601 5.61338 95.0461 6.41507C96.3321 7.20006 97.2925 8.26898 97.9272 9.62182C98.5785 10.958 98.9042 12.4444 98.9042 14.0812C98.9042 15.885 98.5451 17.455 97.827 18.7911C97.1255 20.1273 96.1234 21.1628 94.8206 21.8977C93.5179 22.6326 91.9897 23 90.236 23H83.9227ZM96.0482 14.0812C96.0482 12.8286 95.8144 11.7263 95.3467 10.7743C94.8958 9.80555 94.2361 9.05396 93.3676 8.5195C92.5158 7.96834 91.4719 7.69276 90.236 7.69276H86.7286V20.5198H90.236C91.4886 20.5198 92.5408 20.2358 93.3926 19.668C94.2611 19.1001 94.9208 18.3318 95.3718 17.3631C95.8227 16.3944 96.0482 15.3005 96.0482 14.0812ZM106.28 5.2877H108.911L111.116 11.3254L113.345 5.2877H115.976L112.919 13.2044L115.575 19.7431L121.112 5.21254H124.193L116.903 23H114.473L111.141 15.0332L107.784 23H105.328L98.0632 5.21254H101.12L106.681 19.7431L109.337 13.2044L106.28 5.2877ZM128.707 5.21254H131.363L138.278 23H135.321L133.442 18.1648H126.578L124.724 23H121.743L128.707 5.21254ZM132.891 16.0854L130.035 8.29403L127.079 16.0854H132.891ZM138.595 5.21254L143.505 14.0562L148.465 5.21254H151.547L144.908 16.6366V23H142.102V16.5865L135.513 5.21254H138.595Z" fill="#FFFAC5"/>
</svg>
