<svg width="23" height="23" viewBox="0 0 23 23" fill="none" xmlns="http://www.w3.org/2000/svg">
<g clip-path="url(#clip0_2013_27843)">
<path d="M15.2585 13.2368L12.1214 10.8839V6.09116C12.1214 5.60926 11.7319 5.21973 11.25 5.21973C10.768 5.21973 10.3785 5.60926 10.3785 6.09116V11.3197C10.3785 11.5942 10.5075 11.853 10.7271 12.0168L14.2127 14.6311C14.3696 14.7487 14.5526 14.8054 14.7347 14.8054C15.0005 14.8054 15.2619 14.686 15.4328 14.4559C15.7221 14.0716 15.6437 13.5252 15.2585 13.2368Z" fill="#121212"/>
<path d="M11.25 0C5.04637 0 0 5.04637 0 11.25C0 17.4536 5.04637 22.5 11.25 22.5C17.4536 22.5 22.5 17.4536 22.5 11.25C22.5 5.04637 17.4536 0 11.25 0ZM11.25 20.7572C6.00842 20.7572 1.74283 16.4916 1.74283 11.25C1.74283 6.00842 6.00842 1.74283 11.25 1.74283C16.4925 1.74283 20.7572 6.00842 20.7572 11.25C20.7572 16.4916 16.4916 20.7572 11.25 20.7572Z" fill="#121212"/>
</g>
<defs>
<clipPath id="clip0_2013_27843">
<rect width="22.5" height="22.5" fill="white"/>
</clipPath>
</defs>
</svg>
