<svg width="20" height="15" viewBox="0 0 20 15" fill="none" xmlns="http://www.w3.org/2000/svg">
<path d="M19.7433 6.62207L13.3765 0.255318C13.205 0.0896386 12.9753 -0.00203792 12.7368 3.43827e-05C12.4983 0.00210669 12.2702 0.0977618 12.1015 0.266397C11.9329 0.435033 11.8373 0.663155 11.8352 0.901633C11.8331 1.14011 11.9248 1.36986 12.0905 1.5414L16.9046 6.35558H0.909536C0.668312 6.35558 0.436968 6.4514 0.266397 6.62197C0.0958258 6.79254 0 7.02389 0 7.26511C0 7.50634 0.0958258 7.73768 0.266397 7.90825C0.436968 8.07882 0.668312 8.17465 0.909536 8.17465H16.9046L12.0905 12.9888C12.0036 13.0727 11.9343 13.1731 11.8866 13.2841C11.839 13.395 11.8139 13.5144 11.8128 13.6351C11.8118 13.7559 11.8348 13.8757 11.8805 13.9874C11.9263 14.0992 11.9938 14.2008 12.0792 14.2862C12.1646 14.3716 12.2661 14.4391 12.3779 14.4848C12.4897 14.5306 12.6095 14.5536 12.7302 14.5525C12.851 14.5515 12.9703 14.5264 13.0813 14.4787C13.1923 14.4311 13.2926 14.3618 13.3765 14.2749L19.7433 7.90815C19.9138 7.73759 20.0096 7.50629 20.0096 7.26511C20.0096 7.02393 19.9138 6.79263 19.7433 6.62207Z" fill="#121212"/>
</svg>
