<svg width="23" height="21" viewBox="0 0 23 21" fill="none" xmlns="http://www.w3.org/2000/svg">
<path d="M23 5.59277C23 4.47813 22.0932 3.57129 20.9785 3.57129H17.3848V2.12135C17.3848 0.951625 16.4331 0 15.2635 0H7.73658C6.56686 0 5.61523 0.951625 5.61523 2.12135V3.57129H2.02148C0.906838 3.57129 0 4.47813 0 5.59277V8.78209C0 9.37641 0.193523 10.1176 0.898438 10.8446V18.2607C0.898438 19.3754 1.80528 20.2822 2.91992 20.2822H20.0801C21.1947 20.2822 22.1016 19.3754 22.1016 18.2607V10.8446C22.8062 10.118 23 9.37704 23 8.78209V5.59277ZM6.96289 2.12135C6.96289 1.69472 7.30996 1.34766 7.73658 1.34766H15.2635C15.6901 1.34766 16.0372 1.69472 16.0372 2.12135V3.57129H6.96289V2.12135ZM1.34766 5.59277C1.34766 5.22122 1.64994 4.91895 2.02148 4.91895H20.9785C21.3501 4.91895 21.6523 5.22122 21.6523 5.59277V8.78209C21.6523 10.4401 18.4715 11.7931 13.8359 12.1475V11.5225C13.8359 11.1503 13.5342 10.8486 13.1621 10.8486H9.83789C9.46576 10.8486 9.16406 11.1503 9.16406 11.5225V12.1473C4.53266 11.7924 1.34766 10.4358 1.34766 8.78209V5.59277ZM12.4883 12.1963V13.0723C12.4883 13.5553 12.0953 13.9482 11.6123 13.9482H11.3877C10.9047 13.9482 10.5117 13.5553 10.5117 13.0723V12.1963H12.4883ZM20.0801 18.9346H2.91992C2.54837 18.9346 2.24609 18.6323 2.24609 18.2607V11.8335C4.25248 12.8617 6.36103 13.2581 9.20611 13.5019C9.40687 14.523 10.3086 15.2959 11.3877 15.2959H11.6123C12.6915 15.2959 13.5933 14.5229 13.7939 13.5017C16.1441 13.3315 18.2657 12.9001 19.8149 12.2732C20.1632 12.1323 20.4749 11.985 20.7539 11.8334V18.2607C20.7539 18.6323 20.4516 18.9346 20.0801 18.9346Z" fill="#121212"/>
</svg>
