<svg width="21" height="21" viewBox="0 0 21 21" fill="none" xmlns="http://www.w3.org/2000/svg">
<path d="M10.5082 20.6107C10.44 20.6107 10.3717 20.6107 10.303 20.6104C8.68746 20.6143 7.19471 20.5733 5.743 20.4849C4.41206 20.4039 3.19716 19.944 2.22946 19.1549C1.29572 18.3935 0.658082 17.364 0.334309 16.0953C0.0525208 14.9908 0.0375822 13.9066 0.0232727 12.8579C0.0128943 12.1055 0.00220147 11.2139 0 10.3072C0.00220147 9.39675 0.0128943 8.50516 0.0232727 7.75273C0.0375822 6.7042 0.0525208 5.61998 0.334309 4.51531C0.658082 3.24664 1.29572 2.21713 2.22946 1.45574C3.19716 0.666672 4.41206 0.206723 5.74316 0.12574C7.19487 0.0375244 8.68794 -0.00367452 10.307 0.000256673C11.923 -0.00320278 13.4153 0.0375244 14.867 0.12574C16.1979 0.206723 17.4128 0.666672 18.3805 1.45574C19.3144 2.21713 19.9519 3.24664 20.2757 4.51531C20.5575 5.61982 20.5724 6.7042 20.5867 7.75273C20.5971 8.50516 20.6079 9.39675 20.61 10.3034V10.3072C20.6079 11.2139 20.5971 12.1055 20.5867 12.8579C20.5724 13.9065 20.5576 14.9907 20.2757 16.0953C19.9519 17.364 19.3144 18.3935 18.3805 19.1549C17.4128 19.944 16.1979 20.4039 14.867 20.4849C13.4768 20.5695 12.0486 20.6107 10.5082 20.6107ZM10.303 19.0002C11.8923 19.004 13.3516 18.9639 14.7692 18.8777C15.7756 18.8165 16.6481 18.4899 17.363 17.907C18.0237 17.3681 18.4788 16.6246 18.7155 15.6972C18.9501 14.7778 18.9636 13.7906 18.9767 12.8359C18.9869 12.0885 18.9976 11.2032 18.9998 10.3053C18.9976 9.40729 18.9869 8.52214 18.9767 7.77474C18.9636 6.82009 18.9501 5.83289 18.7155 4.9133C18.4788 3.98586 18.0237 3.24239 17.363 2.7035C16.6481 2.12074 15.7756 1.79414 14.7692 1.73297C13.3516 1.64664 11.8923 1.60686 10.3068 1.61032C8.71781 1.60654 7.2584 1.64664 5.84081 1.73297C4.83442 1.79414 3.96186 2.12074 3.24701 2.7035C2.58625 3.24239 2.13118 3.98586 1.89452 4.9133C1.65991 5.83289 1.64638 6.81993 1.63333 7.77474C1.62311 8.52277 1.61242 9.40854 1.61022 10.3072C1.61242 11.202 1.62311 12.0879 1.63333 12.8359C1.64638 13.7906 1.65991 14.7778 1.89452 15.6972C2.13118 16.6246 2.58625 17.3681 3.24701 17.907C3.96186 18.4898 4.83442 18.8164 5.84081 18.8775C7.2584 18.9639 8.71813 19.0041 10.303 19.0002ZM10.2647 15.3373C7.49018 15.3373 5.23273 13.08 5.23273 10.3053C5.23273 7.53069 7.49018 5.2734 10.2647 5.2734C13.0393 5.2734 15.2966 7.53069 15.2966 10.3053C15.2966 13.08 13.0393 15.3373 10.2647 15.3373ZM10.2647 6.88362C8.378 6.88362 6.84295 8.41867 6.84295 10.3053C6.84295 12.192 8.378 13.727 10.2647 13.727C12.1515 13.727 13.6864 12.192 13.6864 10.3053C13.6864 8.41867 12.1515 6.88362 10.2647 6.88362ZM15.8602 3.66318C15.1933 3.66318 14.6525 4.2038 14.6525 4.87085C14.6525 5.53789 15.1933 6.07851 15.8602 6.07851C16.5272 6.07851 17.0678 5.53789 17.0678 4.87085C17.0678 4.2038 16.5272 3.66318 15.8602 3.66318Z" fill="#121212"/>
</svg>
