<svg width="910" height="176" viewBox="0 0 910 176" fill="none" xmlns="http://www.w3.org/2000/svg">
<g opacity="0.4">
<path d="M134.208 99.7393C143.52 99.7391 150.69 90.7968 150.69 80.3457V79.4541C150.69 69.003 143.52 60.0607 134.208 60.0605C124.895 60.0605 117.725 69.0029 117.725 79.4541V81.3076H128.514V79.4541C128.514 75.316 131.291 72.3896 134.208 72.3896C137.123 72.3898 139.9 75.3161 139.9 79.4541V80.3457C139.9 84.4837 137.123 87.41 134.208 87.4102H34.7905C31.8745 87.4101 29.0982 84.4838 29.0982 80.3457V79.4541C29.0982 75.316 31.8745 72.3897 34.7905 72.3896C37.7066 72.3896 40.4839 75.316 40.4839 79.4541V81.3076H51.273V79.4541C51.273 69.0029 44.1027 60.0605 34.7905 60.0605C25.4784 60.0606 18.3081 69.0029 18.3081 79.4541V80.3457C18.3081 90.7969 25.4784 99.7393 34.7905 99.7393H134.208Z" fill="#121212" stroke="#121212" stroke-width="2.81663"/>
<path d="M113.553 80.7119V68.3828H54.9244V80.7119H113.553Z" fill="#121212" stroke="#121212" stroke-width="2.81663"/>
<path d="M134.622 117.574V105.245H33.7996V117.574H134.622Z" fill="#121212" stroke="#121212" stroke-width="2.81663"/>
<rect x="5.63327" y="9.13424" width="157.732" height="157.732" rx="78.8658" stroke="#121212" stroke-width="11.2665"/>
<rect x="77.4574" y="13.3594" width="15.4915" height="63.3743" fill="#121212"/>
<path d="M217.748 34.5L249.848 120.45L281.798 34.5H299.648L257.798 141H241.898L199.898 34.5H217.748ZM327.266 34.5H343.166L384.566 141H366.866L355.616 112.05H314.516L303.416 141H285.566L327.266 34.5ZM352.316 99.6L335.216 52.95L317.516 99.6H352.316ZM390.236 141V34.5H407.036V126.15H464.186V141H390.236ZM470.334 141V34.5H487.134V141H470.334ZM503.703 141V34.5H541.503C553.003 34.5 562.603 36.9 570.303 41.7C578.003 46.4 583.753 52.8 587.553 60.9C591.453 68.9 593.403 77.8 593.403 87.6C593.403 98.4 591.253 107.8 586.953 115.8C582.753 123.8 576.753 130 568.953 134.4C561.153 138.8 552.003 141 541.503 141H503.703ZM576.303 87.6C576.303 80.1 574.903 73.5 572.103 67.8C569.403 62 565.453 57.5 560.253 54.3C555.153 51 548.903 49.35 541.503 49.35H520.503V126.15H541.503C549.003 126.15 555.303 124.45 560.403 121.05C565.603 117.65 569.553 113.05 572.253 107.25C574.953 101.45 576.303 94.9 576.303 87.6ZM637.568 34.95H653.318L666.518 71.1L679.868 34.95H695.618L677.318 82.35L693.218 121.5L726.368 34.5H744.818L701.168 141H686.618L666.668 93.3L646.568 141H631.868L588.368 34.5H606.668L639.968 121.5L655.868 82.35L637.568 34.95ZM771.846 34.5H787.746L829.146 141H811.446L800.196 112.05H759.096L747.996 141H730.146L771.846 34.5ZM796.896 99.6L779.796 52.95L762.096 99.6H796.896ZM831.044 34.5L860.444 87.45L890.144 34.5H908.594L868.844 102.9V141H852.044V102.6L812.594 34.5H831.044Z" fill="#121212"/>
</g>
</svg>
