<svg width="20" height="20" viewBox="0 0 20 20" fill="none" xmlns="http://www.w3.org/2000/svg">
<path d="M19.3777 1.25V6.875C19.3777 7.22047 19.0982 7.5 18.7527 7.5C18.4072 7.5 18.1277 7.22047 18.1277 6.875V2.75875L9.19456 11.6919C9.07253 11.8139 8.91253 11.875 8.75269 11.875C8.59284 11.875 8.43284 11.8139 8.31081 11.6919C8.06659 11.4477 8.06659 11.0522 8.31081 10.8081L17.2439 1.875H13.1277C12.7822 1.875 12.5027 1.59547 12.5027 1.25C12.5027 0.904531 12.7822 0.625 13.1277 0.625H18.7527C19.0982 0.625 19.3777 0.904531 19.3777 1.25ZM16.8777 17.5V10C16.8777 9.65453 16.5982 9.375 16.2527 9.375C15.9072 9.375 15.6277 9.65453 15.6277 10V17.5C15.6277 17.8448 15.3475 18.125 15.0027 18.125H2.50269C2.15784 18.125 1.87769 17.8448 1.87769 17.5V5C1.87769 4.65516 2.15784 4.375 2.50269 4.375H10.0027C10.3482 4.375 10.6277 4.09547 10.6277 3.75C10.6277 3.40453 10.3482 3.125 10.0027 3.125H2.50269C1.46878 3.125 0.627686 3.96609 0.627686 5V17.5C0.627686 18.5339 1.46878 19.375 2.50269 19.375H15.0027C16.0366 19.375 16.8777 18.5339 16.8777 17.5Z" fill="black"/>
</svg>
