<svg width="21" height="21" viewBox="0 0 21 21" fill="none" xmlns="http://www.w3.org/2000/svg">
<g clip-path="url(#clip0_2013_28230)">
<path d="M5.47828 20.7861H-6.10352e-05V6.63379H5.47828V20.7861ZM0.91294 19.8731H4.56528V7.54679H0.91294V19.8731Z" fill="#121212"/>
<path d="M21.0004 20.7861H15.522V13.0251C15.522 12.2688 14.9088 11.6555 14.1524 11.6555C13.3959 11.6555 12.7828 12.2688 12.7828 13.0251V20.7861H7.3045V6.63379H12.7828V7.55248C13.6097 6.95462 14.6043 6.63312 15.6247 6.63379C18.5864 6.63379 21.0004 9.03625 21.0004 11.9923V20.7861ZM16.435 19.8731H20.0872V11.9923C20.081 9.53296 18.084 7.54361 15.6247 7.54679C14.5005 7.54679 13.4447 8.02043 12.6573 8.87642L11.8697 9.73809V7.54679H8.21751V19.8731H11.8697V13.0251C11.8697 11.7644 12.8917 10.7425 14.1524 10.7425C15.413 10.7425 16.435 11.7644 16.435 13.0251V19.8731Z" fill="#121212"/>
<path d="M2.73911 5.72102C1.22625 5.72102 -6.10352e-05 4.49471 -6.10352e-05 2.98185C-6.10352e-05 1.46915 1.22625 0.242676 2.73911 0.242676C4.25197 0.242676 5.47828 1.46915 5.47828 2.98185C5.4751 4.49337 4.25064 5.71801 2.73911 5.72102ZM2.73911 1.15584C1.73065 1.15584 0.91294 1.97338 0.91294 2.98185C0.91294 3.99048 1.73065 4.80802 2.73911 4.80802C3.74757 4.80802 4.56528 3.99048 4.56528 2.98185C4.56528 1.97338 3.74757 1.15584 2.73911 1.15584Z" fill="#121212"/>
</g>
<defs>
<clipPath id="clip0_2013_28230">
<rect width="21.0003" height="21.0003" fill="white"/>
</clipPath>
</defs>
</svg>
