<svg width="32" height="29" viewBox="0 0 32 29" fill="none" xmlns="http://www.w3.org/2000/svg">
<path d="M31.0684 3.75024C31.0664 3.75024 31.0645 3.75 31.0625 3.75H22.5625V2.8125C22.5625 1.26172 21.3008 0 19.75 0H12.25C10.6992 0 9.4375 1.26172 9.4375 2.8125V3.75H0.9375C0.415527 3.75 0 4.17773 0 4.6875V25.3125C0 26.8633 1.26172 28.125 2.8125 28.125H29.1875C30.7383 28.125 32 26.8633 32 25.3125V4.70728C32 4.70605 32 4.70483 32 4.70361C31.9641 4.08789 31.5854 3.75366 31.0684 3.75024ZM11.3125 2.8125C11.3125 2.29565 11.7332 1.875 12.25 1.875H19.75C20.2668 1.875 20.6875 2.29565 20.6875 2.8125V3.75H11.3125V2.8125ZM29.7617 5.625L26.8503 14.3589C26.7227 14.7424 26.3652 15 25.9612 15H20.6875V14.0625C20.6875 13.5447 20.2678 13.125 19.75 13.125H12.25C11.7322 13.125 11.3125 13.5447 11.3125 14.0625V15H6.03882C5.63477 15 5.27734 14.7424 5.14966 14.3589L2.23828 5.625H29.7617ZM18.8125 15V16.875H13.1875V15H18.8125ZM30.125 25.3125C30.125 25.8293 29.7043 26.25 29.1875 26.25H2.8125C2.29565 26.25 1.875 25.8293 1.875 25.3125V10.4646L3.37085 14.9519C3.75415 16.1023 4.82642 16.875 6.03882 16.875H11.3125V17.8125C11.3125 18.3303 11.7322 18.75 12.25 18.75H19.75C20.2678 18.75 20.6875 18.3303 20.6875 17.8125V16.875H25.9612C27.1736 16.875 28.2458 16.1023 28.6292 14.9519L30.125 10.4646V25.3125Z" fill="#999999"/>
</svg>
