<svg width="37" height="37" viewBox="0 0 37 37" fill="none" xmlns="http://www.w3.org/2000/svg">
<path d="M18.0988 16.9738C19.2135 16.9738 20.3032 16.6432 21.23 16.0239C22.1568 15.4045 22.8792 14.5243 23.3057 13.4944C23.7323 12.4645 23.8438 11.3313 23.6262 10.238C23.4087 9.14469 22.8718 8.14048 22.0835 7.35233C21.2952 6.56419 20.2909 6.02751 19.1976 5.81018C18.1042 5.59285 16.971 5.70462 15.9412 6.13136C14.9114 6.5581 14.0313 7.28064 13.4122 8.2076C12.793 9.13457 12.4627 10.2243 12.4629 11.339C12.4647 12.8331 13.0591 14.2654 14.1157 15.3218C15.1722 16.3781 16.6047 16.9722 18.0988 16.9738ZM18.0988 7.98443C18.7622 7.98443 19.4108 8.18118 19.9625 8.54979C20.5141 8.91839 20.9441 9.44231 21.198 10.0553C21.4519 10.6683 21.5183 11.3428 21.3889 11.9935C21.2595 12.6442 20.94 13.2419 20.4708 13.7111C20.0017 14.1802 19.4039 14.4997 18.7532 14.6292C18.1025 14.7586 17.428 14.6922 16.815 14.4383C16.202 14.1844 15.6781 13.7544 15.3095 13.2028C14.9409 12.6511 14.7442 12.0025 14.7442 11.339C14.7454 10.4497 15.0992 9.59716 15.728 8.96831C16.3569 8.33946 17.2094 7.98564 18.0988 7.98443Z" fill="#999999"/>
<path d="M7.45159 20.2862C8.30886 20.2862 9.14687 20.032 9.85966 19.5558C10.5724 19.0795 11.128 18.4026 11.4561 17.6105C11.7841 16.8185 11.87 15.947 11.7027 15.1062C11.5355 14.2654 11.1227 13.4931 10.5165 12.887C9.9103 12.2808 9.13798 11.868 8.29719 11.7007C7.4564 11.5335 6.5849 11.6193 5.79289 11.9474C5.00088 12.2754 4.32394 12.831 3.84767 13.5438C3.3714 14.2566 3.11719 15.0946 3.11719 15.9518C3.11719 17.1014 3.57385 18.2039 4.38671 19.0167C5.19956 19.8296 6.30204 20.2862 7.45159 20.2862ZM7.45159 13.8987C7.85766 13.8987 8.25462 14.0191 8.59225 14.2447C8.92989 14.4703 9.19305 14.791 9.34844 15.1661C9.50384 15.5413 9.5445 15.9541 9.46528 16.3524C9.38606 16.7507 9.19052 17.1165 8.90338 17.4036C8.61624 17.6908 8.25041 17.8863 7.85214 17.9655C7.45387 18.0447 7.04105 18.0041 6.66589 17.8487C6.29073 17.6933 5.97007 17.4301 5.74447 17.0925C5.51887 16.7549 5.39845 16.3579 5.39845 15.9518C5.39845 15.4073 5.61476 14.8851 5.9998 14.5C6.38484 14.115 6.90707 13.8987 7.45159 13.8987Z" fill="#999999"/>
<path d="M28.7436 20.2862C29.6008 20.2862 30.4389 20.032 31.1516 19.5558C31.8644 19.0795 32.42 18.4026 32.7481 17.6105C33.0761 16.8185 33.1619 15.947 32.9947 15.1062C32.8275 14.2654 32.4146 13.4931 31.8085 12.887C31.2023 12.2808 30.43 11.868 29.5892 11.7007C28.7484 11.5335 27.8769 11.6193 27.0849 11.9474C26.2929 12.2754 25.6159 12.831 25.1397 13.5438C24.6634 14.2566 24.4092 15.0946 24.4092 15.9518C24.4092 17.1014 24.8658 18.2039 25.6787 19.0167C26.4916 19.8296 27.594 20.2862 28.7436 20.2862ZM28.7436 13.8987C29.1497 13.8987 29.5466 14.0191 29.8842 14.2447C30.2219 14.4703 30.485 14.791 30.6404 15.1661C30.7958 15.5413 30.8365 15.9541 30.7573 16.3524C30.6781 16.7507 30.4825 17.1165 30.1954 17.4036C29.9082 17.6908 29.5424 17.8863 29.1441 17.9655C28.7459 18.0447 28.333 18.0041 27.9579 17.8487C27.5827 17.6933 27.2621 17.4301 27.0365 17.0925C26.8109 16.7549 26.6904 16.3579 26.6904 15.9518C26.6904 15.4073 26.9068 14.8851 27.2918 14.5C27.6768 14.115 28.1991 13.8987 28.7436 13.8987Z" fill="#999999"/>
<path d="M28.8959 22.5742C27.896 22.5808 26.9135 22.8368 26.0375 23.319C25.2047 22.0005 24.0568 20.9101 22.6973 20.146C21.3379 19.382 19.8096 18.9683 18.2504 18.9424C16.6912 18.9683 15.1629 19.382 13.8034 20.146C12.444 20.9101 11.2961 22.0005 10.4633 23.319C9.58728 22.8368 8.6048 22.5808 7.60487 22.5742C5.81053 22.6617 4.12371 23.4556 2.91265 24.7825C1.70159 26.1094 1.06465 27.8615 1.1409 29.6563C1.1409 29.9589 1.26107 30.249 1.47498 30.4629C1.68889 30.6768 1.97902 30.797 2.28153 30.797C2.58405 30.797 2.87417 30.6768 3.08808 30.4629C3.30199 30.249 3.42217 29.9589 3.42217 29.6563C3.34741 28.4667 3.74458 27.2956 4.52756 26.3969C5.31055 25.4982 6.41623 24.9443 7.60487 24.8554C8.2352 24.8603 8.85403 25.0247 9.40364 25.3333C8.86608 26.6881 8.59086 28.1327 8.59265 29.5902C8.59265 29.8927 8.71283 30.1828 8.92674 30.3967C9.14065 30.6106 9.43077 30.7308 9.73329 30.7308C10.0358 30.7308 10.3259 30.6106 10.5398 30.3967C10.7537 30.1828 10.8739 29.8927 10.8739 29.5902C10.8739 24.9763 14.1818 21.2236 18.2504 21.2236C22.319 21.2236 25.6269 24.9763 25.6269 29.5902C25.6269 29.8927 25.747 30.1828 25.9609 30.3967C26.1749 30.6106 26.465 30.7308 26.7675 30.7308C27.07 30.7308 27.3601 30.6106 27.574 30.3967C27.788 30.1828 27.9081 29.8927 27.9081 29.5902C27.9099 28.1327 27.6347 26.6881 27.0971 25.3333C27.6467 25.0247 28.2656 24.8603 28.8959 24.8554C30.0845 24.9443 31.1902 25.4982 31.9732 26.3969C32.7562 27.2956 33.1534 28.4667 33.0786 29.6563C33.0786 29.9589 33.1988 30.249 33.4127 30.4629C33.6266 30.6768 33.9167 30.797 34.2192 30.797C34.5218 30.797 34.8119 30.6768 35.0258 30.4629C35.2397 30.249 35.3599 29.9589 35.3599 29.6563C35.4361 27.8615 34.7992 26.1094 33.5881 24.7825C32.3771 23.4556 30.6902 22.6617 28.8959 22.5742Z" fill="#999999"/>
</svg>
