<svg width="34" height="34" viewBox="0 0 34 34" fill="none" xmlns="http://www.w3.org/2000/svg">
<path opacity="0.4" d="M33.5908 18.4195L28.2392 5.94176H30.6991C30.9618 5.94176 31.2136 5.83743 31.3994 5.65171C31.5851 5.466 31.6894 5.21411 31.6894 4.95147C31.6894 4.68883 31.5851 4.43694 31.3994 4.25123C31.2136 4.06551 30.9618 3.96118 30.6991 3.96118H17.8253V0.990294C17.8253 0.727652 17.721 0.475767 17.5352 0.290051C17.3495 0.104334 17.0976 0 16.835 0C16.5724 0 16.3205 0.104334 16.1348 0.290051C15.949 0.475767 15.8447 0.727652 15.8447 0.990294V3.96118H2.97088C2.70824 3.96118 2.45635 4.06551 2.27064 4.25123C2.08492 4.43694 1.98059 4.68883 1.98059 4.95147C1.98059 5.21411 2.08492 5.466 2.27064 5.65171C2.45635 5.83743 2.70824 5.94176 2.97088 5.94176H5.43077L0.0831843 18.4195C0.0713008 18.4512 0.00396089 18.778 0.00396089 18.8156H0C2.73957e-08 20.6541 0.73034 22.4173 2.03035 23.7173C3.33037 25.0173 5.09356 25.7476 6.93206 25.7476C8.77055 25.7476 10.5337 25.0173 11.8338 23.7173C13.1338 22.4173 13.8641 20.6541 13.8641 18.8156C13.8641 18.7879 13.7968 18.4611 13.7849 18.4195L8.43334 5.94176H15.8447V31.6894H12.8738C12.6112 31.6894 12.3593 31.7937 12.1736 31.9795C11.9879 32.1652 11.8835 32.4171 11.8835 32.6797C11.8835 32.9423 11.9879 33.1942 12.1736 33.3799C12.3593 33.5657 12.6112 33.67 12.8738 33.67H20.7962C21.0588 33.67 21.3107 33.5657 21.4964 33.3799C21.6821 33.1942 21.7865 32.9423 21.7865 32.6797C21.7865 32.4171 21.6821 32.1652 21.4964 31.9795C21.3107 31.7937 21.0588 31.6894 20.7962 31.6894H17.8253V5.94176H25.2367L19.8891 18.4195C19.8772 18.4512 19.8098 18.778 19.8098 18.8156C19.8098 20.6541 20.5402 22.4173 21.8402 23.7173C23.1402 25.0173 24.9034 25.7476 26.7419 25.7476C28.5804 25.7476 30.3436 25.0173 31.6436 23.7173C32.9436 22.4173 33.674 20.6541 33.674 18.8156C33.67 18.7859 33.6027 18.4591 33.5908 18.4195ZM6.93206 7.46682L11.3725 17.8253H2.49158L6.93206 7.46682ZM6.93206 23.7671C5.79059 23.7673 4.6841 23.3731 3.79985 22.6513C2.91561 21.9295 2.30791 20.9243 2.07962 19.8059H11.7845C11.5562 20.9243 10.9485 21.9295 10.0643 22.6513C9.18001 23.3731 8.07352 23.7673 6.93206 23.7671ZM31.1784 17.8253H22.2975L26.7379 7.46682L31.1784 17.8253ZM26.7379 23.7671C25.5965 23.7673 24.49 23.3731 23.6057 22.6513C22.7215 21.9295 22.1138 20.9243 21.8855 19.8059H31.5904C31.3621 20.9243 30.7544 21.9295 29.8701 22.6513C28.9859 23.3731 27.8794 23.7673 26.7379 23.7671Z" fill="black"/>
</svg>
