<svg width="29" height="29" viewBox="0 0 29 29" fill="none" xmlns="http://www.w3.org/2000/svg">
<g clip-path="url(#clip0_2034_1643)">
<path d="M28.6945 5.91305L23.0307 0.248879C22.8714 0.0894922 22.6552 0 22.4299 0H9.40234C7.99692 0 6.85352 1.1434 6.85352 2.54883V13.7545C3.0356 14.1785 0.0566406 17.4244 0.0566406 21.3535C0.0566406 25.5698 3.48685 29 7.70312 29H26.3945C27.8 29 28.9434 27.8566 28.9434 26.4512V6.51384C28.9434 6.28847 28.8539 6.07244 28.6945 5.91305ZM23.2793 2.90074L25.1252 4.74671L26.0426 5.66406H23.2793V2.90074ZM1.75586 21.3535C1.75586 18.0742 4.4238 15.4062 7.70312 15.4062C10.9824 15.4062 13.6504 18.0742 13.6504 21.3535C13.6504 24.6328 10.9824 27.3008 7.70312 27.3008C4.4238 27.3008 1.75586 24.6328 1.75586 21.3535ZM26.3945 27.3008H12.5034C14.0306 26.0657 15.0742 24.2558 15.3022 22.2031H24.1289C24.5981 22.2031 24.9785 21.8227 24.9785 21.3535C24.9785 20.8843 24.5981 20.5039 24.1289 20.5039H15.3021C15.1636 19.2567 14.7242 18.099 14.0579 17.1055H24.1289C24.5981 17.1055 24.9785 16.7251 24.9785 16.2559C24.9785 15.7866 24.5981 15.4062 24.1289 15.4062H12.5034C11.3977 14.5121 10.0389 13.9195 8.55273 13.7545V2.54883C8.55273 2.08035 8.93387 1.69922 9.40234 1.69922H21.5801V6.51367C21.5801 6.98288 21.9605 7.36328 22.4297 7.36328H27.2441V26.4512C27.2441 26.9196 26.863 27.3008 26.3945 27.3008Z" fill="#9A9A9A"/>
<path d="M24.1289 10.3086H11.668C11.1988 10.3086 10.8184 10.689 10.8184 11.1582C10.8184 11.6274 11.1988 12.0078 11.668 12.0078H24.1289C24.5981 12.0078 24.9785 11.6274 24.9785 11.1582C24.9785 10.689 24.5981 10.3086 24.1289 10.3086Z" fill="#9A9A9A"/>
<path d="M11.0793 19.2235C10.7475 18.8918 10.2096 18.8918 9.87776 19.2235L6.5137 22.5876L5.41521 21.4891C5.08347 21.1574 4.5455 21.1574 4.21369 21.4891C3.88189 21.8209 3.88189 22.3588 4.21369 22.6906L5.91291 24.3898C6.07881 24.5557 6.29626 24.6387 6.5137 24.6387C6.73114 24.6387 6.94859 24.5557 7.11443 24.3898L11.0793 20.425C11.4111 20.0933 11.4111 19.5553 11.0793 19.2235Z" fill="#9A9A9A"/>
</g>
<defs>
<clipPath id="clip0_2034_1643">
<rect width="29" height="29" fill="white"/>
</clipPath>
</defs>
</svg>
