<svg width="45" height="9" viewBox="0 0 45 9" fill="none" xmlns="http://www.w3.org/2000/svg">
<path d="M6.49518 5.06833C6.94586 5.06806 7.29292 4.63553 7.29303 4.12985V4.08688C7.29303 3.5811 6.94593 3.1477 6.49518 3.14743C6.04422 3.14743 5.69635 3.58095 5.69635 4.08688V4.17673H6.21979V4.08688C6.21979 3.88679 6.35437 3.74509 6.49518 3.74509C6.63583 3.74537 6.76959 3.88699 6.76959 4.08688V4.12985C6.76949 4.32962 6.63578 4.47039 6.49518 4.47067H1.68365C1.5429 4.47067 1.40837 4.32982 1.40826 4.12985V4.08688C1.40826 3.88679 1.54285 3.74509 1.68365 3.74509C1.82446 3.74509 1.95905 3.88679 1.95905 4.08688V4.17673H2.48151V4.08688C2.48151 3.58095 2.13461 3.14743 1.68365 3.14743C1.2327 3.14743 0.885803 3.58095 0.885803 4.08688V4.12985C0.88591 4.63569 1.23277 5.06833 1.68365 5.06833H6.49518Z" fill="#121212" stroke="#121212" stroke-width="0.137178"/>
<path d="M5.49564 4.14755V3.5499H2.65775V4.14755H5.49564Z" fill="#121212" stroke="#121212" stroke-width="0.137178"/>
<path d="M6.51535 5.93143V5.33377H1.63547V5.93143H6.51535Z" fill="#121212" stroke="#121212" stroke-width="0.137178"/>
<rect x="0.272613" y="0.68341" width="7.63316" height="7.63316" rx="3.81658" stroke="#121212" stroke-width="0.545225"/>
<rect x="3.65289" y="0.887878" width="1.04197" height="3.06689" fill="#121212"/>
<path d="M10.5548 1.8084L12.1196 5.99824L13.6771 1.8084H14.5472L12.5072 7H11.7321L9.68468 1.8084H10.5548ZM15.8935 1.8084H16.6686L18.6868 7H17.8239L17.2755 5.58876H15.272L14.7309 7H13.8608L15.8935 1.8084ZM17.1146 4.98186L16.2811 2.70779L15.4182 4.98186H17.1146ZM18.9632 7V1.8084H19.7821V6.2761H22.5681V7H18.9632ZM22.8677 7V1.8084H23.6867V7H22.8677ZM24.4944 7V1.8084H26.3371C26.8976 1.8084 27.3656 1.92539 27.741 2.15938C28.1163 2.38849 28.3966 2.70048 28.5819 3.09533C28.772 3.48531 28.867 3.91916 28.867 4.39689C28.867 4.92336 28.7622 5.38158 28.5526 5.77156C28.3479 6.16154 28.0554 6.46378 27.6752 6.67827C27.2949 6.89276 26.8489 7 26.3371 7H24.4944ZM28.0335 4.39689C28.0335 4.03128 27.9652 3.70955 27.8287 3.43169C27.6971 3.14895 27.5046 2.92959 27.2511 2.7736C27.0025 2.61273 26.6978 2.5323 26.3371 2.5323H25.3134V6.2761H26.3371C26.7027 6.2761 27.0098 6.19323 27.2584 6.02749C27.5119 5.86175 27.7044 5.63751 27.836 5.35477C27.9677 5.07204 28.0335 4.75274 28.0335 4.39689ZM31.02 1.83033H31.7877L32.4312 3.59255L33.082 1.83033H33.8497L32.9577 4.14096L33.7327 6.04942L35.3487 1.8084H36.2481L34.1203 7H33.411L32.4385 4.67475L31.4587 7H30.7421L28.6216 1.8084H29.5137L31.1369 6.04942L31.912 4.14096L31.02 1.83033ZM37.5657 1.8084H38.3408L40.3589 7H39.4961L38.9477 5.58876H36.9441L36.403 7H35.5329L37.5657 1.8084ZM38.7868 4.98186L37.9532 2.70779L37.0904 4.98186H38.7868ZM40.4514 1.8084L41.8846 4.38957L43.3324 1.8084H44.2318L42.2941 5.14272V7H41.4751V5.1281L39.552 1.8084H40.4514Z" fill="#121212"/>
</svg>
